<svg width="207" height="148" viewBox="0 0 207 148" fill="none" xmlns="http://www.w3.org/2000/svg">
  <path d="M127.804 147.64C118.667 147.664 109.615 145.879 101.174 142.386C92.7322 138.894 85.0679 133.764 78.6243 127.295C77.7676 126.439 77.088 125.424 76.6244 124.306C76.1607 123.188 75.9221 121.99 75.9221 120.78C75.9221 119.57 76.1607 118.372 76.6244 117.254C77.088 116.136 77.7676 115.121 78.6243 114.265C79.4809 113.41 80.498 112.731 81.6173 112.268C82.7366 111.805 83.9362 111.567 85.1478 111.567C86.3593 111.567 87.5591 111.805 88.6784 112.268C89.7977 112.731 90.8148 113.41 91.6714 114.265C101.256 123.834 114.254 129.209 127.806 129.209C141.359 129.209 154.356 123.834 163.941 114.265C164.798 113.41 165.815 112.731 166.934 112.268C168.053 111.805 169.253 111.567 170.465 111.567C171.676 111.567 172.876 111.805 173.995 112.268C175.114 112.731 176.131 113.41 176.988 114.265C177.845 115.121 178.524 116.136 178.988 117.254C179.452 118.372 179.69 119.57 179.69 120.78C179.69 121.99 179.452 123.188 178.988 124.306C178.524 125.424 177.845 126.439 176.988 127.295C170.546 133.767 162.881 138.898 154.438 142.391C145.996 145.883 136.943 147.668 127.804 147.64Z" fill="#1EC677"/>
  <path d="M166.991 24.6739C161.891 24.5813 156.823 25.5076 152.087 27.3985C147.35 29.2893 143.04 32.1065 139.409 35.6845C135.778 39.2626 132.9 43.5293 130.944 48.2339C128.988 52.9386 127.993 57.9862 128.018 63.0802V86.0977C128.019 87.4158 128.28 88.7207 128.786 89.9381C129.292 91.1555 130.034 92.2614 130.968 93.1926C131.902 94.1239 133.01 94.8624 134.23 95.3658C135.45 95.8692 136.757 96.1278 138.077 96.1267V96.1267C139.397 96.1278 140.704 95.8692 141.924 95.3658C143.144 94.8624 144.253 94.1239 145.187 93.1926C146.121 92.2614 146.862 91.1555 147.368 89.9381C147.874 88.7207 148.135 87.4158 148.136 86.0977V62.3814C148.094 59.8849 148.551 57.4051 149.48 55.087C150.409 52.7689 151.791 50.659 153.547 48.8809C155.302 47.1027 157.395 45.692 159.702 44.7312C162.01 43.7704 164.487 43.2788 166.987 43.2852C172.129 43.2364 177.082 45.2138 180.774 48.7887C184.465 52.3635 186.596 57.2475 186.706 62.3814V86.0977C186.707 87.4158 186.968 88.7207 187.474 89.9381C187.98 91.1555 188.721 92.2614 189.655 93.1926C190.589 94.1239 191.698 94.8624 192.918 95.3658C194.138 95.8692 195.445 96.1278 196.765 96.1267V96.1267C198.085 96.1278 199.392 95.8692 200.612 95.3658C201.831 94.8624 202.94 94.1239 203.874 93.1926C204.808 92.2614 205.549 91.1555 206.055 89.9381C206.562 88.7207 206.823 87.4158 206.824 86.0977V63.0802C206.752 57.9404 205.662 52.8655 203.617 48.1482C201.572 43.4309 198.613 39.1644 194.909 35.5943C191.206 32.0243 186.832 29.2214 182.039 27.3472C177.246 25.4729 172.129 24.5644 166.983 24.6739H166.991Z" fill="#1EC677"/>
  <path d="M0.00812061 64.3749C-0.179119 72.547 2.87799 80.4612 8.51232 86.3906C14.1466 92.3199 21.9008 95.783 30.0824 96.024V96.024C31.0044 96.1021 33.7208 96.1883 35.3836 96.1349C36.61 96.136 37.8245 95.8958 38.958 95.4281C40.0914 94.9605 41.1216 94.2744 41.9895 93.4091C42.8575 92.5439 43.5463 91.5164 44.0166 90.3853C44.4869 89.2542 44.7295 88.0417 44.7306 86.8169V86.8169C44.73 85.5921 44.4878 84.3793 44.0177 83.248C43.5475 82.1167 42.8588 81.0889 41.9907 80.2236C41.1226 79.3582 40.0924 78.6722 38.9587 78.2047C37.825 77.7372 36.6101 77.4974 35.3836 77.499H32.6507C29.3114 77.4729 26.1184 76.1265 23.771 73.7546C21.4236 71.3826 20.1131 68.1784 20.1262 64.8435V43.1043H35.5935C38.0161 43.1076 40.3408 42.1499 42.0566 40.4419C43.7723 38.7339 44.7386 36.4153 44.743 33.996C44.7413 32.7979 44.5034 31.6118 44.0426 30.5056C43.5819 29.3994 42.9074 28.3947 42.0578 27.5488C41.2081 26.703 40.1999 26.0326 39.0907 25.576C37.9816 25.1194 36.7932 24.8855 35.5935 24.8876H20.1262V10.0455C20.1262 7.38126 19.0664 4.82617 17.18 2.94227C15.2936 1.05838 12.735 0 10.0672 0C7.39935 0 4.84081 1.05838 2.95437 2.94227C1.06793 4.82617 0.00812061 7.38126 0.00812061 10.0455V33.9878V64.379V64.3749Z" fill="#1EC677"/>
  <path d="M85.1479 24.6738C77.929 24.6738 70.8724 26.8116 64.8701 30.8168C58.8679 34.8219 54.1897 40.5146 51.4271 47.1749C48.6646 53.8352 47.9418 61.1641 49.3501 68.2347C50.7585 75.3052 54.2346 81.8 59.3391 86.8976C64.4436 91.9952 70.9471 95.4667 78.0272 96.8731C85.1073 98.2795 92.4462 97.5577 99.1155 94.7989C105.785 92.0401 111.485 87.3682 115.496 81.3741C119.506 75.3799 121.647 68.3327 121.647 61.1236C121.646 51.4569 117.8 42.1864 110.955 35.3509C104.111 28.5155 94.8277 24.6749 85.1479 24.6738V24.6738ZM85.1479 78.806C81.6611 78.746 78.2698 77.6588 75.3997 75.6806C72.5296 73.7025 70.3088 70.9217 69.0158 67.6874C67.7229 64.4531 67.4156 60.9093 68.1325 57.5011C68.8493 54.0929 70.5584 50.9722 73.0452 48.5308C75.532 46.0894 78.6857 44.436 82.1103 43.7784C85.5348 43.1207 89.0775 43.488 92.2937 44.8342C95.5098 46.1804 98.2561 48.4455 100.188 51.345C102.119 54.2445 103.15 57.6493 103.15 61.1319C103.108 65.8591 101.188 70.376 97.8124 73.6901C94.4367 77.0042 89.8815 78.8443 85.1479 78.806V78.806Z" fill="#1EC677"/>
</svg>
